<svg id="Capa_1" data-name="Capa 1" xmlns="http://www.w3.org/2000/svg" viewBox="0 0 262 190"><defs><style>.cls-1,.cls-3,.cls-4,.cls-5,.cls-6,.cls-7{fill:none;stroke:#000;}.cls-1,.cls-3,.cls-4,.cls-5,.cls-6{stroke-miterlimit:10;}.cls-2{fill:#fff;}.cls-3{stroke-width:11px;}.cls-4{stroke-width:7px;}.cls-5{stroke-width:3px;}.cls-6,.cls-7{stroke-width:2px;}.cls-7{stroke-linecap:round;stroke-linejoin:round;}</style></defs><title>favicon</title><path class="cls-1" d="M-64.5,98.54v-.25" transform="translate(65 -4.54)"/><path class="cls-2" d="M77.3,38.83a4.89,4.89,0,1,0,0,.5C77.33,39.16,77.31,39,77.3,38.83Zm58.29,121.43c0,.15,0,.31,0,.48a4.88,4.88,0,1,0,0-.48ZM155,75.87a4.78,4.78,0,1,0,.3,0A1.51,1.51,0,0,0,155,75.87Zm.14,44.39a.44.44,0,0,0,.16,0,5.56,5.56,0,1,0-.16,0Zm-120.28.24a1.62,1.62,0,0,0,0-.22,5,5,0,1,0,0,.22ZM54.12,49.17a4.88,4.88,0,1,0-.5,0A4.07,4.07,0,0,0,54.12,49.17ZM102,10a89.5,89.5,0,1,1-89.5,89.5A89.5,89.5,0,0,1,102,10Zm31.36,89A37.53,37.53,0,0,0,95.84,61.53c-4.29,0-9.42.53-13.34,2.45-2.13,1-1.89,1.39-2,3.45-.11,3.33,0,6.68,0,10v30.91q0,10.88,0,21.76c0,4,1.76,4.16,5.53,5.17A37.53,37.53,0,0,0,133.36,99Z" transform="translate(65 -4.54)"/><path class="cls-2" d="M155,75.87a1.51,1.51,0,0,1,.3,0,5.11,5.11,0,1,1-.3,0Z" transform="translate(65 -4.54)"/><path class="cls-2" d="M155.14,120.26a4.49,4.49,0,1,1,.16,0A.44.44,0,0,1,155.14,120.26Z" transform="translate(65 -4.54)"/><path class="cls-2" d="M135.59,160.26a5,5,0,1,1,0,.48C135.57,160.57,135.58,160.41,135.59,160.26Z" transform="translate(65 -4.54)"/><path class="cls-2" d="M77.3,38.83c0,.17,0,.33,0,.5a5,5,0,1,1,0-.5Z" transform="translate(65 -4.54)"/><path class="cls-2" d="M54.12,49.17a4.07,4.07,0,0,1-.5,0,5,5,0,1,1,.5,0Z" transform="translate(65 -4.54)"/><path class="cls-2" d="M34.86,120.5a4.83,4.83,0,1,1,0-.22A1.62,1.62,0,0,1,34.86,120.5Z" transform="translate(65 -4.54)"/><circle class="cls-3" cx="167" cy="95" r="89.5"/><path class="cls-4" d="M133.36,99A37.53,37.53,0,0,0,95.84,61.53c-4.29,0-9.42.53-13.34,2.45-2.13,1-1.89,1.39-2,3.45-.11,3.33,0,6.68,0,10v30.91q0,10.88,0,21.76c0,4,1.76,4.16,5.53,5.17A37.53,37.53,0,0,0,133.36,99Z" transform="translate(65 -4.54)"/><polyline class="cls-5" points="83.82 84.39 119.12 84.39 119.12 44.63 119.12 44.17"/><polyline class="cls-5" points="119.12 164.1 119.12 115.96 99.86 115.96 99.82 115.96"/><polyline class="cls-5" points="151.94 177.92 151.94 155.71 200.59 155.71 201.06 155.71"/><polyline class="cls-5" points="220 71.44 220 71.32 219.92 29.96"/><polyline class="cls-5" points="220.31 159.58 220.15 115.72 220.15 115.58"/><polyline class="cls-5" points="191.68 14.55 191.68 34.29 142.3 34.29 141.83 34.29"/><path class="cls-6" d="M34.87,120.28a5,5,0,1,0,0,.22A1.62,1.62,0,0,0,34.87,120.28Z" transform="translate(65 -4.54)"/><path class="cls-6" d="M145.44,160.74a4.94,4.94,0,0,0-9.85-.48c0,.15,0,.31,0,.48a4.94,4.94,0,1,0,9.87,0Z" transform="translate(65 -4.54)"/><path class="cls-6" d="M160.24,115.34a4.93,4.93,0,1,0-5.1,4.92.44.44,0,0,0,.16,0A4.94,4.94,0,0,0,160.24,115.34Z" transform="translate(65 -4.54)"/><path class="cls-6" d="M160.24,80.78a4.94,4.94,0,0,0-4.94-4.93,1.51,1.51,0,0,0-.3,0,4.93,4.93,0,1,0,5.24,4.91Z" transform="translate(65 -4.54)"/><path class="cls-6" d="M58.56,44.26a4.93,4.93,0,1,0-4.94,4.94,4.07,4.07,0,0,0,.5,0A4.93,4.93,0,0,0,58.56,44.26Z" transform="translate(65 -4.54)"/><path class="cls-7" d="M77.33,39.33c0-.17,0-.33,0-.5a4.89,4.89,0,1,0,0,.5Z" transform="translate(65 -4.54)"/></svg>